<?xml version="1.0" encoding="utf-8"?>
<!-- Generator: Adobe Illustrator 23.0.4, SVG Export Plug-In . SVG Version: 6.00 Build 0)  -->
<svg version="1.1" id="Layer_1" xmlns="http://www.w3.org/2000/svg" xmlns:xlink="http://www.w3.org/1999/xlink" x="0px" y="0px"
	 viewBox="0 0 792 102.64" style="enable-background:new 0 0 792 102.64;" xml:space="preserve">
<style type="text/css">
	.st0{filter:url(#Adobe_OpacityMaskFilter);}
	.st1{fill:#FFFFFF;}
	.st2{mask:url(#SVGID_1_);fill:url(#SVGID_2_);}
	.st3{fill:#939598;}
	.st4{fill:#FF8400;}
</style>
<defs>
	<filter id="Adobe_OpacityMaskFilter" filterUnits="userSpaceOnUse" x="428.2" y="0" width="363.8" height="102.64">
		
			<feColorMatrix  type="matrix" values="-1 0 0 0 1  0 -1 0 0 1  0 0 -1 0 1  0 0 0 1 0" color-interpolation-filters="sRGB" result="source"/>
		<feFlood  style="flood-color:white;flood-opacity:1" result="back"/>
		<feBlend  in="source" in2="back" mode="normal"/>
	</filter>
</defs>
<mask maskUnits="userSpaceOnUse" x="428.2" y="0" width="363.8" height="102.64" id="SVGID_1_">
	<g class="st0">
		<g>
			<path class="st1" d="M451.79,63.11h1.25c1.29,0,2.4,0.46,3.32,1.37c0.92,0.91,1.38,2.01,1.38,3.3c0,1.34-0.47,2.46-1.4,3.36
				c-0.93,0.9-2.03,1.35-3.3,1.35h-1.25c-1.29,0-2.4-0.46-3.32-1.37c-0.92-0.91-1.38-2.01-1.38-3.3c0-1.34,0.47-2.45,1.4-3.35
				C449.42,63.56,450.52,63.11,451.79,63.11z"/>
			<path class="st1" d="M480.43,41.5h15.77c0.69,0,1.19,0.14,1.49,0.41c0.3,0.28,0.45,0.63,0.45,1.07c0,0.41-0.15,0.76-0.45,1.04
				c-0.3,0.28-0.79,0.41-1.49,0.41h-15.77v19.33c0,1.68,0.67,3.09,2.02,4.22c1.35,1.13,3.32,1.69,5.93,1.69
				c1.96,0,4.08-0.29,6.36-0.88c2.28-0.59,4.06-1.25,5.33-1.99c0.46-0.3,0.84-0.45,1.14-0.45c0.37,0,0.69,0.14,0.97,0.43
				c0.28,0.29,0.42,0.63,0.42,1.02c0,0.35-0.15,0.67-0.45,0.97c-0.74,0.76-2.53,1.59-5.38,2.47c-2.85,0.89-5.57,1.33-8.18,1.33
				c-3.39,0-6.09-0.79-8.09-2.39c-2.01-1.59-3.01-3.73-3.01-6.43V44.44h-5.36c-0.69,0-1.19-0.14-1.49-0.41
				c-0.3-0.28-0.45-0.63-0.45-1.07c0-0.41,0.15-0.76,0.45-1.04c0.3-0.28,0.8-0.41,1.49-0.41h5.36v-8.58c0-0.69,0.14-1.19,0.41-1.49
				c0.28-0.3,0.62-0.45,1.04-0.45c0.44,0,0.8,0.15,1.07,0.45c0.28,0.3,0.41,0.79,0.41,1.49V41.5z"/>
			<path class="st1" d="M543.71,56.54c0,4.43-1.59,8.21-4.75,11.34c-3.17,3.13-6.99,4.7-11.46,4.7c-4.52,0-8.36-1.57-11.51-4.72
				c-3.16-3.15-4.74-6.92-4.74-11.32c0-4.43,1.58-8.21,4.74-11.36c3.16-3.15,7-4.72,11.51-4.72c4.47,0,8.29,1.57,11.46,4.7
				C542.12,48.3,543.71,52.09,543.71,56.54z M540.77,56.54c0-3.64-1.3-6.74-3.89-9.3c-2.59-2.56-5.73-3.84-9.42-3.84
				c-3.69,0-6.83,1.29-9.42,3.86s-3.89,5.67-3.89,9.28c0,3.6,1.3,6.68,3.89,9.27c2.59,2.58,5.73,3.87,9.42,3.87
				c3.69,0,6.83-1.28,9.42-3.85C539.48,63.26,540.77,60.16,540.77,56.54z"/>
			<path class="st1" d="M583.18,34.96v-2.04c0-0.69,0.13-1.19,0.4-1.49c0.27-0.3,0.62-0.45,1.06-0.45c0.44,0,0.79,0.15,1.06,0.45
				c0.26,0.3,0.4,0.79,0.4,1.49v8.06c0,0.71-0.13,1.22-0.4,1.52c-0.27,0.3-0.62,0.45-1.06,0.45c-0.39,0-0.72-0.14-0.99-0.41
				c-0.26-0.28-0.42-0.73-0.47-1.35c-0.12-1.94-1.16-3.65-3.15-5.15c-2.67-2.05-5.72-3.08-9.13-3.08c-2.24,0-4.35,0.5-6.33,1.49
				c-1.48,0.72-2.65,1.59-3.53,2.63c-1.52,1.8-2.73,3.79-3.63,5.98c-0.65,1.61-0.97,3.43-0.97,5.46v5.08c0,4.33,1.57,8.1,4.7,11.29
				c3.13,3.19,6.78,4.79,10.93,4.79c2.49,0,4.72-0.54,6.69-1.63c1.97-1.08,3.88-2.72,5.72-4.91c0.39-0.48,0.83-0.73,1.31-0.73
				c0.42,0,0.75,0.13,1,0.38c0.25,0.25,0.38,0.58,0.38,0.97c0,0.53-0.5,1.34-1.49,2.42c-1.89,2.12-4.02,3.72-6.38,4.79
				c-2.36,1.07-4.76,1.61-7.17,1.61c-2.1,0-4.23-0.4-6.4-1.21c-1.66-0.62-3.03-1.35-4.11-2.18c-1.08-0.83-2.42-2.23-3.99-4.2
				c-1.58-1.97-2.66-3.79-3.23-5.46c-0.58-1.67-0.86-3.51-0.86-5.52v-5.91c0-2.86,0.77-5.78,2.3-8.77c1.53-2.98,3.63-5.28,6.29-6.88
				c2.66-1.6,5.55-2.4,8.66-2.4C575.59,30.05,579.72,31.69,583.18,34.96z"/>
			<path class="st1" d="M629.56,56.54c0,4.43-1.59,8.21-4.75,11.34c-3.17,3.13-6.99,4.7-11.46,4.7c-4.52,0-8.36-1.57-11.51-4.72
				c-3.16-3.15-4.74-6.92-4.74-11.32c0-4.43,1.58-8.21,4.74-11.36c3.16-3.15,7-4.72,11.51-4.72c4.47,0,8.29,1.57,11.46,4.7
				C627.97,48.3,629.56,52.09,629.56,56.54z M626.62,56.54c0-3.64-1.3-6.74-3.89-9.3c-2.59-2.56-5.73-3.84-9.42-3.84
				c-3.69,0-6.83,1.29-9.42,3.86s-3.89,5.67-3.89,9.28c0,3.6,1.3,6.68,3.89,9.27c2.59,2.58,5.73,3.87,9.42,3.87
				c3.69,0,6.83-1.28,9.42-3.85C625.32,63.26,626.62,60.16,626.62,56.54z"/>
			<path class="st1" d="M670.47,28.05v40.49h3.87c0.72,0,1.22,0.13,1.52,0.4c0.3,0.26,0.45,0.62,0.45,1.05
				c0,0.42-0.15,0.76-0.45,1.04c-0.3,0.28-0.81,0.42-1.52,0.42h-6.81v-5.77c-3.37,4.61-7.64,6.92-12.83,6.92
				c-2.63,0-5.15-0.7-7.55-2.09c-2.41-1.39-4.31-3.38-5.71-5.96c-1.4-2.58-2.09-5.24-2.09-7.99c0-2.77,0.7-5.43,2.09-8.01
				c1.39-2.57,3.3-4.56,5.71-5.96c2.41-1.41,4.94-2.11,7.59-2.11c5.07,0,9.34,2.31,12.79,6.92V30.99h-3.87
				c-0.72,0-1.22-0.14-1.52-0.42c-0.3-0.28-0.45-0.63-0.45-1.07c0-0.42,0.15-0.76,0.45-1.04c0.3-0.28,0.81-0.42,1.52-0.42H670.47z
				 M667.53,56.54c0-3.69-1.24-6.8-3.73-9.34c-2.49-2.54-5.45-3.8-8.89-3.8c-3.46,0-6.43,1.27-8.92,3.8
				c-2.49,2.54-3.74,5.65-3.74,9.34c0,3.66,1.25,6.77,3.74,9.32c2.49,2.55,5.46,3.82,8.92,3.82c3.43,0,6.4-1.27,8.89-3.82
				C666.29,63.32,667.53,60.21,667.53,56.54z"/>
			<path class="st1" d="M714.89,57.17h-29.6c0.51,3.76,2.08,6.78,4.72,9.08c2.64,2.29,5.91,3.44,9.8,3.44
				c2.17,0,4.44-0.36,6.81-1.07c2.37-0.72,4.31-1.66,5.81-2.84c0.44-0.34,0.82-0.52,1.14-0.52c0.37,0,0.69,0.14,0.97,0.43
				c0.28,0.29,0.41,0.63,0.41,1.02c0,0.39-0.19,0.77-0.55,1.14c-1.11,1.15-3.07,2.23-5.9,3.23c-2.83,1-5.72,1.5-8.7,1.5
				c-4.98,0-9.14-1.63-12.47-4.89c-3.33-3.26-5-7.21-5-11.84c0-4.22,1.56-7.84,4.69-10.86c3.12-3.02,6.99-4.53,11.6-4.53
				c4.75,0,8.66,1.55,11.72,4.65S714.93,52.23,714.89,57.17z M711.95,54.23c-0.58-3.2-2.09-5.81-4.55-7.81
				c-2.46-2.01-5.38-3.01-8.77-3.01c-3.39,0-6.31,0.99-8.75,2.97c-2.45,1.98-3.97,4.6-4.57,7.85H711.95z"/>
			<path class="st1" d="M729.02,51.3c0-2.65,0.34-5.46,1.04-8.44c0.69-2.97,2.02-6.41,3.98-10.3c1.96-3.89,3.39-6.25,4.29-7.05
				c0.28-0.25,0.58-0.38,0.9-0.38c0.42,0,0.77,0.14,1.06,0.42c0.29,0.28,0.43,0.61,0.43,1c0,0.23-0.08,0.48-0.24,0.76
				c-2.54,4.66-4.35,8.88-5.43,12.66c-1.08,3.78-1.63,7.56-1.63,11.34c0,3.8,0.54,7.6,1.63,11.38c1.08,3.78,2.89,7.99,5.43,12.62
				c0.16,0.28,0.24,0.53,0.24,0.76c0,0.39-0.14,0.73-0.43,1.02c-0.29,0.29-0.64,0.43-1.06,0.43c-0.32,0-0.62-0.13-0.9-0.38
				c-0.85-0.78-2.25-3.08-4.18-6.88c-1.94-3.8-3.27-7.17-4.01-10.1C729.38,57.23,729.02,54.28,729.02,51.3z"/>
			<path class="st1" d="M773.12,51.34c0,2.65-0.34,5.46-1.04,8.42c-0.69,2.96-2.02,6.4-3.98,10.3c-1.96,3.91-3.39,6.25-4.29,7.04
				c-0.28,0.28-0.58,0.41-0.9,0.41c-0.42,0-0.77-0.14-1.06-0.43c-0.29-0.29-0.43-0.63-0.43-1.02c0-0.23,0.08-0.48,0.24-0.76
				c2.54-4.63,4.34-8.84,5.43-12.62c1.08-3.78,1.63-7.56,1.63-11.34c0-3.8-0.54-7.6-1.63-11.38c-1.08-3.78-2.89-8-5.43-12.66
				c-0.16-0.28-0.24-0.53-0.24-0.76c0-0.39,0.14-0.73,0.43-1c0.29-0.28,0.64-0.42,1.06-0.42c0.32,0,0.62,0.13,0.9,0.38
				c0.85,0.78,2.25,3.08,4.18,6.88c1.94,3.8,3.27,7.17,4.01,10.1C772.75,45.41,773.12,48.37,773.12,51.34z"/>
		</g>
	</g>
</mask>
<linearGradient id="SVGID_2_" gradientUnits="userSpaceOnUse" x1="610.0997" y1="101.1704" x2="610.0997" y2="-0.0878">
	<stop  offset="0" style="stop-color:#0097FF"/>
	<stop  offset="1" style="stop-color:#0A31E0"/>
</linearGradient>
<path class="st2" d="M779.78,0H440.42c-6.75,0-12.22,5.47-12.22,12.22v78.2c0,6.75,5.47,12.22,12.22,12.22h339.35
	c6.75,0,12.22-5.47,12.22-12.22v-78.2C792,5.47,786.53,0,779.78,0z"/>
<g>
	<g>
		<path class="st3" d="M129.64,41.5v4.39c2.03-2.05,3.86-3.47,5.5-4.25c1.64-0.78,3.48-1.17,5.53-1.17c2.21,0,4.23,0.47,6.05,1.42
			c1.29,0.69,2.46,1.84,3.51,3.44c1.05,1.6,1.57,3.24,1.57,4.93v18.29h2.45c0.69,0,1.19,0.13,1.49,0.4c0.3,0.26,0.45,0.62,0.45,1.05
			c0,0.42-0.15,0.76-0.45,1.04c-0.3,0.28-0.8,0.42-1.49,0.42h-7.78c-0.71,0-1.22-0.14-1.52-0.42c-0.3-0.28-0.45-0.62-0.45-1.04
			c0-0.44,0.15-0.79,0.45-1.05c0.3-0.27,0.81-0.4,1.52-0.4h2.42V50.73c0-2.05-0.75-3.79-2.25-5.2c-1.5-1.42-3.5-2.13-6.02-2.13
			c-1.91,0-3.57,0.39-4.98,1.16c-1.41,0.77-3.41,2.69-6.02,5.76v18.22h3.29c0.69,0,1.19,0.13,1.49,0.4c0.3,0.26,0.45,0.62,0.45,1.05
			c0,0.42-0.15,0.76-0.45,1.04c-0.3,0.28-0.79,0.42-1.49,0.42h-9.47c-0.69,0-1.19-0.14-1.49-0.42c-0.3-0.28-0.45-0.62-0.45-1.04
			c0-0.44,0.15-0.79,0.45-1.05c0.3-0.27,0.79-0.4,1.49-0.4h3.29v-24.1h-2.45c-0.69,0-1.19-0.14-1.49-0.41
			c-0.3-0.28-0.45-0.63-0.45-1.07c0-0.41,0.15-0.76,0.45-1.04c0.3-0.28,0.8-0.41,1.49-0.41H129.64z"/>
		<path class="st3" d="M197.94,57.17h-29.6c0.51,3.76,2.08,6.78,4.72,9.08c2.64,2.29,5.91,3.44,9.8,3.44c2.17,0,4.44-0.36,6.81-1.07
			c2.37-0.72,4.31-1.66,5.81-2.84c0.44-0.34,0.82-0.52,1.14-0.52c0.37,0,0.69,0.14,0.97,0.43c0.28,0.29,0.41,0.63,0.41,1.02
			c0,0.39-0.18,0.77-0.55,1.14c-1.11,1.15-3.07,2.23-5.9,3.23c-2.82,1-5.72,1.5-8.7,1.5c-4.98,0-9.14-1.63-12.47-4.89
			c-3.33-3.26-5-7.21-5-11.84c0-4.22,1.56-7.84,4.69-10.86c3.12-3.02,6.99-4.53,11.6-4.53c4.75,0,8.66,1.55,11.72,4.65
			C196.47,48.22,197.98,52.23,197.94,57.17z M195,54.23c-0.58-3.2-2.09-5.81-4.55-7.81c-2.45-2.01-5.38-3.01-8.77-3.01
			c-3.39,0-6.3,0.99-8.75,2.97c-2.44,1.98-3.97,4.6-4.56,7.85H195z"/>
		<path class="st3" d="M217.26,41.5h15.77c0.69,0,1.19,0.14,1.49,0.41c0.3,0.28,0.45,0.63,0.45,1.07c0,0.41-0.15,0.76-0.45,1.04
			c-0.3,0.28-0.8,0.41-1.49,0.41h-15.77v19.33c0,1.68,0.67,3.09,2.02,4.22c1.35,1.13,3.33,1.69,5.93,1.69
			c1.96,0,4.08-0.29,6.36-0.88c2.28-0.59,4.06-1.25,5.33-1.99c0.46-0.3,0.84-0.45,1.14-0.45c0.37,0,0.69,0.14,0.97,0.43
			c0.28,0.29,0.42,0.63,0.42,1.02c0,0.35-0.15,0.67-0.45,0.97c-0.74,0.76-2.53,1.59-5.38,2.47c-2.85,0.89-5.57,1.33-8.18,1.33
			c-3.39,0-6.09-0.79-8.09-2.39c-2.01-1.59-3.01-3.73-3.01-6.43V44.44h-5.36c-0.69,0-1.19-0.14-1.49-0.41
			c-0.3-0.28-0.45-0.63-0.45-1.07c0-0.41,0.15-0.76,0.45-1.04c0.3-0.28,0.79-0.41,1.49-0.41h5.36v-8.58c0-0.69,0.14-1.19,0.42-1.49
			c0.28-0.3,0.62-0.45,1.04-0.45c0.44,0,0.79,0.15,1.07,0.45c0.28,0.3,0.41,0.79,0.41,1.49V41.5z"/>
		<path class="st3" d="M276.25,71.45l-3.6,0.03l-6.4-18.67l-6.36,18.67l-3.6-0.03l-6.02-27.01h-1.42c-0.69,0-1.19-0.14-1.49-0.41
			c-0.3-0.28-0.45-0.63-0.45-1.07c0-0.41,0.15-0.76,0.45-1.04c0.3-0.28,0.8-0.41,1.49-0.41h7.99c0.69,0,1.19,0.14,1.49,0.41
			c0.3,0.28,0.45,0.63,0.45,1.07c0,0.41-0.15,0.76-0.45,1.04c-0.3,0.28-0.8,0.41-1.49,0.41h-3.7l5.15,23.03l6.19-18.4h3.46
			l6.36,18.4l4.95-23.03h-3.67c-0.69,0-1.19-0.14-1.5-0.41c-0.31-0.28-0.47-0.63-0.47-1.07c0-0.41,0.15-0.76,0.45-1.04
			c0.3-0.28,0.81-0.41,1.52-0.41h7.95c0.71,0,1.22,0.14,1.52,0.41c0.3,0.28,0.45,0.63,0.45,1.07c0,0.41-0.15,0.76-0.45,1.04
			c-0.3,0.28-0.81,0.41-1.52,0.41h-1.38L276.25,71.45z"/>
		<path class="st3" d="M325.78,56.54c0,4.43-1.59,8.21-4.75,11.34c-3.17,3.13-6.99,4.7-11.46,4.7c-4.52,0-8.36-1.57-11.51-4.72
			c-3.16-3.15-4.74-6.92-4.74-11.32c0-4.43,1.58-8.21,4.74-11.36c3.16-3.15,7-4.72,11.51-4.72c4.47,0,8.29,1.57,11.46,4.7
			C324.2,48.3,325.78,52.09,325.78,56.54z M322.84,56.54c0-3.64-1.3-6.74-3.89-9.3c-2.59-2.56-5.73-3.84-9.42-3.84
			c-3.69,0-6.83,1.29-9.42,3.86c-2.59,2.57-3.89,5.67-3.89,9.28c0,3.6,1.3,6.68,3.89,9.27c2.59,2.58,5.74,3.87,9.42,3.87
			c3.69,0,6.83-1.28,9.42-3.85C321.55,63.26,322.84,60.16,322.84,56.54z"/>
		<path class="st3" d="M346.78,41.5v7.33c3.78-3.41,6.61-5.61,8.49-6.59c1.88-0.98,3.61-1.47,5.2-1.47c1.73,0,3.34,0.58,4.82,1.75
			s2.23,2.05,2.23,2.64c0,0.44-0.14,0.8-0.43,1.09c-0.29,0.29-0.65,0.43-1.09,0.43c-0.23,0-0.43-0.04-0.59-0.12
			c-0.16-0.08-0.46-0.34-0.9-0.78c-0.81-0.81-1.51-1.36-2.11-1.66c-0.6-0.3-1.19-0.45-1.76-0.45c-1.27,0-2.79,0.51-4.58,1.52
			c-1.79,1.01-4.88,3.49-9.28,7.43v15.91h12.86c0.71,0,1.22,0.13,1.52,0.4c0.3,0.26,0.45,0.62,0.45,1.05c0,0.42-0.15,0.76-0.45,1.04
			c-0.3,0.28-0.81,0.42-1.52,0.42h-22.79c-0.69,0-1.19-0.13-1.49-0.4c-0.3-0.26-0.45-0.61-0.45-1.02c0-0.39,0.14-0.72,0.43-0.99
			c0.29-0.26,0.79-0.4,1.5-0.4h7.02V44.44h-5.36c-0.69,0-1.19-0.14-1.49-0.41c-0.3-0.28-0.45-0.63-0.45-1.07
			c0-0.41,0.14-0.76,0.43-1.04c0.29-0.28,0.79-0.41,1.5-0.41H346.78z"/>
		<path class="st3" d="M384.77,58.51v12.93h-6.81c-0.69,0-1.19-0.14-1.49-0.42c-0.3-0.28-0.45-0.62-0.45-1.04
			c0-0.44,0.15-0.79,0.45-1.05c0.3-0.27,0.8-0.4,1.49-0.4h3.91V30.99h-3.91c-0.69,0-1.19-0.14-1.49-0.42
			c-0.3-0.28-0.45-0.63-0.45-1.07c0-0.42,0.15-0.76,0.45-1.04c0.3-0.28,0.8-0.42,1.49-0.42h6.81v26.76l12.35-10.37h-1.49
			c-0.69,0-1.19-0.14-1.49-0.41c-0.3-0.28-0.45-0.62-0.45-1.04c0-0.44,0.15-0.8,0.45-1.07c0.3-0.28,0.8-0.41,1.49-0.41h9.3
			c0.71,0,1.22,0.14,1.52,0.41c0.3,0.28,0.45,0.63,0.45,1.07c0,0.41-0.15,0.76-0.45,1.04c-0.3,0.28-0.81,0.41-1.52,0.41h-3.36
			l-11.34,9.47l14.35,14.63h3.35c0.72,0,1.22,0.13,1.52,0.4c0.3,0.26,0.45,0.62,0.45,1.05c0,0.42-0.15,0.76-0.45,1.04
			c-0.3,0.28-0.81,0.42-1.52,0.42h-9.41c-0.69,0-1.19-0.14-1.49-0.42c-0.3-0.28-0.45-0.62-0.45-1.04c0-0.44,0.15-0.79,0.45-1.05
			c0.3-0.27,0.8-0.4,1.49-0.4h2.04l-12.48-12.83L384.77,58.51z"/>
	</g>
	<g>
		<g>
			<path class="st4" d="M67.17,77.5c-0.57,0-1.13-0.29-1.44-0.82c-0.47-0.8-0.2-1.82,0.59-2.29l30.3-17.85l-30.3-17.86
				c-0.8-0.47-1.06-1.5-0.59-2.29c0.47-0.8,1.5-1.06,2.29-0.59l35.2,20.74l-35.2,20.74C67.76,77.43,67.46,77.5,67.17,77.5z"/>
		</g>
		<g>
			<path class="st4" d="M34.43,77.5c-0.57,0-1.13-0.29-1.44-0.82c-0.47-0.8-0.2-1.82,0.59-2.29l30.3-17.85l-30.3-17.86
				c-0.8-0.47-1.06-1.5-0.59-2.29c0.47-0.8,1.49-1.06,2.29-0.59l35.2,20.74l-35.2,20.74C35.01,77.43,34.72,77.5,34.43,77.5z"/>
		</g>
		<g>
			<path class="st4" d="M1.68,77.5c-0.57,0-1.13-0.29-1.44-0.82c-0.47-0.8-0.2-1.82,0.59-2.29l30.3-17.85L0.82,38.67
				c-0.8-0.47-1.06-1.5-0.59-2.29c0.47-0.8,1.49-1.06,2.29-0.59l35.2,20.74L2.53,77.27C2.26,77.43,1.97,77.5,1.68,77.5z"/>
		</g>
	</g>
</g>
</svg>
